<svg id="Layer_1" data-name="Layer 1" xmlns="http://www.w3.org/2000/svg" viewBox="0 0 739.81 424.87"><defs><style>.cls-1{fill:#dcdcdc;}.cls-12,.cls-2{fill:#f4f2e3;}.cls-17,.cls-19,.cls-3{fill:none;stroke-linecap:round;}.cls-3{stroke:#253080;}.cls-4{fill:#d1ac99;}.cls-10,.cls-12,.cls-20,.cls-21,.cls-22,.cls-23,.cls-4,.cls-5,.cls-8,.cls-9{fill-rule:evenodd;}.cls-18,.cls-5{fill-opacity:0.12;}.cls-6{fill:silver;}.cls-7,.cls-8{fill:#081d52;}.cls-10,.cls-22,.cls-9{fill:#041235;}.cls-10{fill-opacity:0.09;}.cls-11{fill:#f1f1f1;}.cls-13{fill-opacity:0.21;}.cls-14{fill:#081d53;}.cls-15{fill:#b6ac2c;}.cls-16{fill:#6c6867;}.cls-17{stroke:#000;stroke-width:5px;}.cls-19{stroke:#081d52;stroke-width:2px;}.cls-20{fill-opacity:0.31;}.cls-21{fill:#f8c8b0;}.cls-22{fill-opacity:0.2;}.cls-23{fill-opacity:0.1;}</style></defs><path class="cls-1" d="M815,360.58c-6.2-3.1-17.48,20.62-24.07,38.34,4.89,11.37,17.12,31.89,22.67,33,6.93,1.38,63.19-41.3,67.9-48.78s-14.69-29.66-24.94-34.92c-8.21-4.21-26.15,12.92-37.7,30.38C819.45,374.35,821.24,363.68,815,360.58Z" transform="translate(-207 -138)"/><path class="cls-2" d="M769.16,354.65c0,115.91-49.49,207.82-165.4,207.82s-221-91.91-221-207.82S439.55,138,555.46,138,769.16,238.74,769.16,354.65Z" transform="translate(-207 -138)"/><path class="cls-3" d="M227.17,458.91c14.76-83.37,139.37-231.82,335.77-215.57,245.5,20.3-272.27,300.87-17.54,318.41S789.06,217.49,887.81,230.42c79,10.33,61.22,172.28,42.46,252" transform="translate(-207 -138)"/><path class="cls-4" d="M207,179.32l179.62,26.81L432,397.66l9.77-12.22L396.39,193.9l-.06.07L217.08,168.4Zm729.47,162.3L846,270.93l-63,80.63h0l38,29.67,11.55-3.5-1.15,11.62,42.11,32.89ZM508.22,405.94c-.52.8-1.05,1.66-1.61,2.56-1.14,1.84-2.35,3.87-3.66,6.06h0c-7.87,13.18-19.24,32.22-38.37,49.86C452,476,437.77,485.07,421.71,488.66a66.19,66.19,0,0,1-47.88-7.3c-26.77-15.14-45.63-47.32-60.15-84.68l54.06-21c13.8,35.52,26.6,50.65,34.63,55.19,2.78,1.57,4.56,1.68,6.65,1.21,2.89-.65,8.32-3,16.23-10.28,12.53-11.55,19.4-22.94,27.27-36h0c1.54-2.55,3.11-5.15,4.77-7.83,9.82-15.87,24.17-36.45,54.19-42.71,52.06-10.86,105.35-20.23,153.06,11.78,36,24.14,60.35,53.53,73.86,72.66,13.28-5.87,33.35-16.91,57.21-37.13l37.5,44.26c-35,29.65-64.73,44-83.07,50.69-23.91,8.76-45.47-4.14-55.65-19.45a237.54,237.54,0,0,0-29.22-35.6c.22,25.39-4.33,48.18-28.85,53.23-28.32,5.83-85.62,14.87-96.6,7.4C526.37,474,514.31,439.15,508.22,405.94Z" transform="translate(-207 -138)"/><path class="cls-5" d="M322.38,417.19c-3.07-6.6-6-13.46-8.7-20.5l54.06-21c2.11,5.43,4.2,10.38,6.25,14.9,0,4.56-.71,8.56-2.29,11.48C364.46,415.42,342.29,420.39,322.38,417.19Z" transform="translate(-207 -138)"/><path class="cls-6" d="M315,405.33c-19-8.63-38.17-21.76-42.05-34.92l65.1,6.2c10.46,1.1,31.55,4.35,32.2,8.56C371.06,390.44,338.75,416.12,315,405.33Z" transform="translate(-207 -138)"/><path class="cls-7" d="M207,179.3l179.61,26.81L432,397.66,252.35,370.84Z" transform="translate(-207 -138)"/><rect class="cls-2" x="817.95" y="332.79" width="3.28" height="40.94" transform="translate(-170.31 643.73) rotate(-52.01)"/><rect class="cls-2" x="826.03" y="322.44" width="3.28" height="40.94" transform="translate(-159.05 646.12) rotate(-52.01)"/><rect class="cls-2" x="834.11" y="312.1" width="3.28" height="40.94" transform="translate(-147.79 648.51) rotate(-52.01)"/><rect class="cls-2" x="842.19" y="301.75" width="3.28" height="40.94" transform="translate(-136.53 650.9) rotate(-52.01)"/><rect class="cls-2" x="850.27" y="291.41" width="3.28" height="40.94" transform="translate(-125.27 653.29) rotate(-52.01)"/><rect class="cls-2" x="858.35" y="281.06" width="3.28" height="40.94" transform="translate(-114.01 655.68) rotate(-52.01)"/><rect class="cls-2" x="857.23" y="363.47" width="3.28" height="40.94" transform="translate(-179.39 686.48) rotate(-52.01)"/><rect class="cls-2" x="865.31" y="353.13" width="3.28" height="40.94" transform="translate(-168.13 688.87) rotate(-52.01)"/><rect class="cls-2" x="873.39" y="342.78" width="3.28" height="40.94" transform="translate(-156.87 691.27) rotate(-52.01)"/><rect class="cls-2" x="876.42" y="322.09" width="29.54" height="40.94" transform="translate(-134.35 696.05) rotate(-52.01)"/><path class="cls-8" d="M936.47,341.62l-63,80.63-42.11-32.89,1.15-11.62L821,381.24l-38-29.68,5,8.59,83.22,65,2,1.59.85.67,59.57-76.26Z" transform="translate(-207 -138)"/><path class="cls-1" d="M579.82,327.17c6.33-9.74,3.74-22-2.81-31.75,12.58-2.37,32.31.47,37.77,5.74,6.84,6.59,4.62,30.62-4.41,38.86a15,15,0,0,1-6.39,3.87C598.4,345.29,576.69,332,579.82,327.17Z" transform="translate(-207 -138)"/><path class="cls-8" d="M617.42,305.65a27.28,27.28,0,0,1,1.3,7.15c-2.74,2.74-7.16,5.44-13.93,6.71-7.52,1.4-15.3-.65-21.38-3.36.37-6.18-1.57-12.6-4.91-18.34Z" transform="translate(-207 -138)"/><path class="cls-9" d="M368.64,388.21l-92.25-13.78c-19.34-30.86,7.75-67.5,10.4-70.31,3.25-3.45,30-9.41,49.48,0,9.59,4.64,25,23.86,20.84,53.57C370.6,369.85,371.15,382.38,368.64,388.21Z" transform="translate(-207 -138)"/><path class="cls-10" d="M500.8,338.31c-4.9,9.65-8.35,20.81-6.73,30.25,5.35,9.21,47.21,23.75,72.75,3.27,2.24-2.81-1.45-6.13-5.2-9.5-3-2.71-6.06-5.45-6.14-8l-24.09-23c-6.65,1.25-13.29,2.6-19.9,4A76.58,76.58,0,0,0,500.8,338.31Z" transform="translate(-207 -138)"/><path class="cls-11" d="M640.06,267.05c0,34.46-13.45,51.89-25.94,49.43-32.54-6.4-44.19-21.08-45.08-49.43s2.86-45.05,31.21-45.94S639.17,238.69,640.06,267.05Z" transform="translate(-207 -138)"/><path class="cls-11" d="M561.15,265.34c5.59-2.89,9.07,1.21,10.12,3.61,2.56,3.52,6.32,15.92-.71,17.48C566.23,287.39,554.17,269,561.15,265.34Z" transform="translate(-207 -138)"/><path class="cls-7" d="M558.43,389.46l3.82,0L561.53,402l-3.75-.69Z" transform="translate(-207 -138)"/><path class="cls-2" d="M562.25,389.48l-1.47-6.7-2.35,6.69Z" transform="translate(-207 -138)"/><path class="cls-12" d="M562.05,393.52l-3.84-.44.06-1,3.89.41Z" transform="translate(-207 -138)"/><path class="cls-13" d="M540.09,393.4l3.52-1.49,3.55,9.8-3.9.66Z" transform="translate(-207 -138)"/><path class="cls-14" d="M543.61,391.94l-4-5.59.46,7.07Z" transform="translate(-207 -138)"/><path class="cls-15" d="M549.58,393.92l4.82-.47,1.12,8.83-5-.67Z" transform="translate(-207 -138)"/><path class="cls-16" d="M554.41,393.45l-2.81-3.63-2,4.12Z" transform="translate(-207 -138)"/><path class="cls-17" d="M570,396.91c-5.48,3.1-19.82,7.92-33.33,2.47" transform="translate(-207 -138)"/><path class="cls-18" d="M573.49,427.52c7.26-2.76.68-21.43-2.23-30.2-12.15,4.86-25.7,4.59-36.68,1.46-2.1,3.43-.86,21.1,3.74,28.82C544.07,437.26,564.43,431,573.49,427.52Z" transform="translate(-207 -138)"/><path class="cls-19" d="M613.78,264.87c1.68,5.51,7.63,14.22,4.88,15.91s-7,1.85-8.5,1.74" transform="translate(-207 -138)"/><path class="cls-7" d="M585.49,260.52a1,1,0,1,0,1.12,1.65Zm11.75-2.76a1,1,0,0,0,0-2Zm-10.63,4.41a3,3,0,0,0,.69-.67c.16-.2.34-.47.49-.67a5.24,5.24,0,0,1,1.25-1.31c1.15-.86,3.37-1.76,8.2-1.76v-2c-5,0-7.76.94-9.39,2.15a7.5,7.5,0,0,0-1.69,1.75c-.19.27-.31.45-.44.61a1.18,1.18,0,0,1-.23.25Z" transform="translate(-207 -138)"/><path class="cls-7" d="M633.69,256.1a1,1,0,0,1-1.23,1.58Zm-10.79,1.67A1,1,0,0,1,622,256Zm9.56-.09a7.61,7.61,0,0,0-3.94-1.07,11.1,11.1,0,0,0-5.62,1.16L622,256a13.2,13.2,0,0,1,6.65-1.39,9.53,9.53,0,0,1,5.08,1.49Z" transform="translate(-207 -138)"/><path class="cls-7" d="M603.26,295.79a1,1,0,0,1,1.6-1.21Zm12.54,1.57a1,1,0,0,1,.81,1.83Zm-10.94-2.78a9.11,9.11,0,0,0,10.94,2.78l.81,1.83a11.14,11.14,0,0,1-13.35-3.4Z" transform="translate(-207 -138)"/><circle class="cls-7" cx="389.08" cy="129.4" r="2.53"/><circle class="cls-7" cx="420.09" cy="129.81" r="2.53"/><path class="cls-20" d="M583.43,313.53c-3.44-4.26-7.72-9.24-13-15.11-2.73-3-3-7.5-2.13-12.67a3.12,3.12,0,0,0,2.25.68,5,5,0,0,0,1.36-.5,38.35,38.35,0,0,0,7.73,14A33.4,33.4,0,0,1,583.43,313.53Z" transform="translate(-207 -138)"/><path class="cls-3" d="M638.38,227.1c20.54-7.22,48-29.94,42-44s-31-20.09-38.61-21.33" transform="translate(-207 -138)"/><path class="cls-3" d="M640,486.73c15-3.52,31.21-10.55,31.21-23.3,0-10.19-1.76-17.14-2.64-19.34" transform="translate(-207 -138)"/><path class="cls-11" d="M636.46,402.17a3.37,3.37,0,0,1-6.73,0c0-1.86,3.37-5.63,3.37-5.63S636.46,400.31,636.46,402.17Z" transform="translate(-207 -138)"/><path class="cls-11" d="M636.41,387.49a3.37,3.37,0,1,0-6.73,0c0,1.86,3.37,5.62,3.37,5.62S636.41,389.35,636.41,387.49Z" transform="translate(-207 -138)"/><path class="cls-11" d="M625.73,398.22a3.37,3.37,0,0,1,0-6.73c1.86,0,5.63,3.36,5.63,3.36S627.59,398.22,625.73,398.22Z" transform="translate(-207 -138)"/><path class="cls-11" d="M640.41,398.17a3.37,3.37,0,1,0,0-6.73c-1.86,0-5.62,3.36-5.62,3.36S638.55,398.17,640.41,398.17Z" transform="translate(-207 -138)"/><path class="cls-11" d="M625.49,392a3.36,3.36,0,0,1,4.76-4.75c1.31,1.31,1.59,6.35,1.59,6.35S626.8,393.35,625.49,392Z" transform="translate(-207 -138)"/><path class="cls-11" d="M635.9,402.38a3.37,3.37,0,0,0,4.76-4.76c-1.32-1.31-6.36-1.6-6.36-1.6S634.59,401.07,635.9,402.38Z" transform="translate(-207 -138)"/><path class="cls-11" d="M635.87,387.24a3.36,3.36,0,1,1,4.75,4.76c-1.31,1.31-6.35,1.6-6.35,1.6S634.55,388.56,635.87,387.24Z" transform="translate(-207 -138)"/><path class="cls-11" d="M625.52,397.66a3.36,3.36,0,0,0,4.76,4.75c1.31-1.31,1.6-6.35,1.6-6.35S626.84,396.34,625.52,397.66Z" transform="translate(-207 -138)"/><path class="cls-21" d="M674.56,207.93c6.77-35.28-43.23-48.21-73.19-32.27a93.32,93.32,0,0,0-38.52,38.67c-13.11-11.83-30,41.72-32.57,63-2,16.8-11.23,34.8-19.36,50.7-11.43,22.36-20.73,40.54-4.91,45.34,27.06,8.22,57.84,12.12,66.32-13C575.82,350,582.66,346.08,588,343c8.38-4.85,13.08-7.57-4.58-29.45h0a33.4,33.4,0,0,0-3.78-13.61,38.41,38.41,0,0,1-7.73-14,5,5,0,0,1-1.36.5,3.17,3.17,0,0,1-2.25-.67c1-5.4,3.26-11.58,5.54-17.7h0c4.41-11.85,8.75-23.52,3.19-29.08,22.05,4.48,41.47,3.58,57.07-.4,3.95,12.73,6.3,26.52,5.44,39.69a74.81,74.81,0,0,1-5.39,22.65,57,57,0,0,1-2.79,5.37c-3.64,5.88-8.07,9.33-12.6,10.2a45.72,45.72,0,0,1-3.38,16c6.06-.6,15.83-1.88,28.86-13.53,16.35-14.62,14.32-60.83,10.46-88.46C666.05,224.08,673.05,215.8,674.56,207.93ZM633.05,397.38a2.36,2.36,0,1,0-2.36-2.36A2.36,2.36,0,0,0,633.05,397.38Z" transform="translate(-207 -138)"/><path class="cls-5" d="M593.85,482.9a181,181,0,0,1-40.26-5.49c-20.23-5.37-38.71-50.23-45.42-72v.27c6.07,33.28,18.16,68.31,31.55,77.42C546.36,487.63,570,486.1,593.85,482.9Z" transform="translate(-207 -138)"/><path class="cls-5" d="M724.55,401.65c5.43,6.54,10,12.63,13.76,17.93l-14,8.5c3.92-7.84,1.63-20.7,0-26.14Z" transform="translate(-207 -138)"/><path class="cls-1" d="M335.35,399.58c14.92,1.13,13.53-22.66,13.53-22.66s8.23-36.37,3.46-51.06c-1.11-3.39-5.29-4.93-7.82-1.35s-10.59,31.68-13.3,36.1c2-7,18-53.13,5.93-55.72-7.08-1.53-18.39,40.09-21.4,48.72.51-7.83,16.42-52.38,6.33-54.83-9.58-2.33-20.86,39.87-23,48.73-.3-5.89,8.93-42.89,2.17-45.1-9.2-3-29.15,52.41-29.28,59C271.35,392.73,316.82,398.17,335.35,399.58Z" transform="translate(-207 -138)"/><path class="cls-6" d="M311.8,404.86c-17.63-8.44-42.57-21.44-39.81-44,0,0,.28,8.73,7.62,11.49,4,1.49,14.5-8.73,14.5-8.73s-.41,10.4,4.41,11c2.41.33,11.83-6.61,11.83-6.61s.61,8.86,4.76,9.75c5.32,1.14,13.25-5.5,13.25-5.5s5.49,4.42,8.66,4.18c7.33-.56,8.37-2.24,10.76-5.07s3.72-10.18,3.72-10.18,17,7.7,17.13,27.35C370.12,391.94,333.83,415.42,311.8,404.86Z" transform="translate(-207 -138)"/><path class="cls-22" d="M843.48,403.47c-5.5-3.48-10.73-7.23-15.65-10.76-10.83-7.78-20.19-14.5-27.78-14.95,1-2,2.05-4,3.08-5.8Z" transform="translate(-207 -138)"/><path class="cls-23" d="M560.43,212.88a6.49,6.49,0,0,1,2.42,1.44l.12-.23.36.31a93.32,93.32,0,0,1,38.52-38.66A60,60,0,0,1,625,169.21c-45.74,14.48-56.86,47.55-56.86,47.55s-4.16,8.34-2.21,12.3c6.13,12.45-4.67,21.55-14.48,29.81-6.57,5.54-12.69,10.69-13,16.23-.21,4.32-2.65,13.66-5.54,24.76-6.33,24.28-14.87,57-7.08,64.15,10.67,9.78,24.82,11.34,35.54,10.68-13.58,8.49-35.51,4.78-55.42-1.27-15.82-4.8-6.52-23,4.91-45.34,8.13-15.9,17.33-33.9,19.36-50.71,2.29-19.07,16.07-64,28.33-64.72A7.62,7.62,0,0,1,560.43,212.88Z" transform="translate(-207 -138)"/></svg>